<?xml version="1.0" encoding="UTF-8" standalone="no"?>
<svg
   version="1.1"
   viewBox="0 0 192 192"
   fill="none"
   stroke="none"
   stroke-linecap="square"
   stroke-miterlimit="10"
   id="svg1050"
   sodipodi:docname="brainwave.svg"
   width="2in"
   height="2in"
   inkscape:export-filename="brainwave-icon.svg"
   inkscape:export-xdpi="96"
   inkscape:export-ydpi="96"
   xmlns:inkscape="http://www.inkscape.org/namespaces/inkscape"
   xmlns:sodipodi="http://sodipodi.sourceforge.net/DTD/sodipodi-0.dtd"
   xmlns="http://www.w3.org/2000/svg"
   xmlns:svg="http://www.w3.org/2000/svg">
  <defs
     id="defs1054" />
  <sodipodi:namedview
     id="namedview1052"
     pagecolor="#505050"
     bordercolor="#eeeeee"
     borderopacity="1"
     inkscape:showpageshadow="0"
     inkscape:pageopacity="0"
     inkscape:pagecheckerboard="0"
     inkscape:deskcolor="#505050"
     showgrid="false"
     inkscape:document-units="in" />
  <clipPath
     id="p.0">
    <path
       d="M 0,0 H 1024 V 768 H 0 Z"
       clip-rule="nonzero"
       id="path920" />
  </clipPath>
  <g
     clip-path="url(#p.0)"
     id="g1048">
    <path
       fill="#000000"
       fill-opacity="0"
       d="M 0,0 H 1024 V 768 H 0 Z"
       fill-rule="evenodd"
       id="path923" />
    <path
       fill="#210042"
       d="M 0.00787402,0 H 192.00787 V 192 H 0.00787402 Z"
       fill-rule="evenodd"
       id="path925" />
    <defs
       id="defs932">
      <linearGradient
         id="p.1"
         gradientUnits="userSpaceOnUse"
         gradientTransform="scale(15.953488)"
         spreadMethod="pad"
         x1="5.4152107"
         y1="17.146301"
         x2="16.696175"
         y2="5.8656259">
        <stop
           offset="0.0"
           stop-color="#e9355c"
           id="stop927" />
        <stop
           offset="1.0"
           stop-color="#fe9286"
           id="stop929" />
      </linearGradient>
    </defs>
    <path
       fill="url(#p.1)"
       d="M -7.3490814e-6,0 H 172.78739 V 187.14961 H -7.3490814e-6 Z"
       fill-rule="evenodd"
       id="path934"
       style="fill:url(#p.1)" />
    <path
       fill="#210042"
       d="m 58.481564,93.62107 v 0 c 0.0033,-19.374626 15.70332,-35.082882 35.077938,-35.096363 19.374618,-0.01348 35.096478,15.672916 35.126748,35.047512 l -7.80044,0.01218 C 120.86227,78.515227 108.63412,66.314666 93.564926,66.325149 78.495743,66.33564 66.284584,78.553207 66.282013,93.622398 Z"
       fill-rule="evenodd"
       id="path936" />
    <path
       fill="#210042"
       d="m 74.07665,93.61907 v 0 c 0.0018,-10.746933 8.713669,-19.462204 19.469276,-19.476967 10.755604,-0.01476 19.491374,8.676559 19.522764,19.423447 l -7.7921,0.02272 c -0.0189,-6.448127 -5.26313,-11.66291 -11.719968,-11.654045 -6.45684,0.0089 -11.686745,5.238022 -11.687851,11.68618 z"
       fill-rule="evenodd"
       id="path938" />
    <path
       fill="#210042"
       d="m 89.67174,93.562256 v 0 c 0,-2.148254 1.741501,-3.889763 3.889763,-3.889763 v 0 c 1.031624,0 2.021004,0.409813 2.750473,1.13929 0.729477,0.729469 1.13929,1.718849 1.13929,2.750473 v 0 c 0,2.148262 -1.741509,3.889763 -3.889763,3.889763 v 0 c -2.148262,0 -3.889763,-1.741501 -3.889763,-3.889763 z"
       fill-rule="evenodd"
       id="path940" />
    <path
       fill="#210042"
       d="m 42.88648,93.58604 v 0 c 0.0031,-18.1184 9.696987,-34.856743 25.425404,-43.90182 15.728409,-9.045078 35.098196,-9.020638 50.803646,0.06411 15.70546,9.084743 25.35691,25.847504 25.31411,43.96585 l -7.98771,-0.01879 C 136.47803,78.432847 128.34499,64.312227 115.11043,56.65941 101.87586,49.006593 85.553454,48.985997 72.299532,56.60539 59.045614,64.224778 50.876833,78.32483 50.874216,93.58741 Z"
       fill-rule="evenodd"
       id="path942" />
    <path
       fill="#210042"
       d="m 120.86191,93.562256 v 0 c 0,-2.148254 1.7415,-3.889763 3.88976,-3.889763 v 0 c 1.03163,0 2.02101,0.409813 2.75048,1.13929 0.72947,0.729469 1.13929,1.718849 1.13929,2.750473 v 0 c 0,2.148262 -1.74151,3.889763 -3.88977,3.889763 v 0 c -2.14826,0 -3.88976,-1.741501 -3.88976,-3.889763 z"
       fill-rule="evenodd"
       id="path944" />
    <path
       fill="#210042"
       d="m 74.07665,93.6049 v 0 c 0,-2.148254 1.741501,-3.889763 3.889763,-3.889763 v 0 c 1.031624,0 2.021004,0.409813 2.750473,1.139282 0.729477,0.729477 1.13929,1.718849 1.13929,2.750481 v 0 c 0,2.148254 -1.741509,3.889763 -3.889763,3.889763 v 0 c -2.148262,0 -3.889763,-1.741509 -3.889763,-3.889763 z"
       fill-rule="evenodd"
       id="path946" />
    <path
       fill="#210042"
       d="m 42.88648,93.562256 v 0 c 0,-2.148254 1.741505,-3.889763 3.889763,-3.889763 v 0 c 1.031631,0 2.021007,0.409813 2.750481,1.13929 0.729469,0.729469 1.139282,1.718849 1.139282,2.750473 v 0 c 0,2.148262 -1.741505,3.889763 -3.889763,3.889763 v 0 c -2.148258,0 -3.889763,-1.741501 -3.889763,-3.889763 z"
       fill-rule="evenodd"
       id="path948" />
    <path
       fill="#210042"
       d="m 27.291393,93.60943 v 0 c 0.004,-23.679344 12.64275,-45.557144 33.15377,-57.3897 20.51102,-11.832558 45.777107,-11.821568 66.277817,0.02883 20.50073,11.850399 33.12039,33.73919 33.10383,57.418526 l -7.75465,-0.0054 v 0 C 152.08678,72.753284 140.94388,53.425919 122.84215,42.962253 104.74043,32.498588 82.430978,32.488883 64.32016,42.936798 46.209335,53.384708 35.04961,72.702366 35.04604,93.610758 Z"
       fill-rule="evenodd"
       id="path950" />
    <path
       fill="#210042"
       d="m 152.05208,93.6049 v 0 c 0,-2.148254 1.7415,-3.889763 3.88976,-3.889763 v 0 c 1.03163,0 2.02101,0.409813 2.75048,1.139282 0.72947,0.729477 1.13929,1.718849 1.13929,2.750481 v 0 c 0,2.148254 -1.74151,3.889763 -3.88977,3.889763 v 0 c -2.14826,0 -3.88976,-1.741509 -3.88976,-3.889763 z"
       fill-rule="evenodd"
       id="path952" />
    <path
       fill="#210042"
       d="m 66.279106,93.51904 v 0 c -0.0018,10.74693 -8.713669,19.4622 -19.46928,19.47697 -10.755608,0.0148 -19.491373,-8.67655 -19.522762,-19.423443 l 7.792091,-0.02272 c 0.01886,6.448127 5.263138,11.662913 11.719975,11.654043 6.456837,-0.009 11.686745,-5.23802 11.687851,-11.686178 z"
       fill-rule="evenodd"
       id="path954" />
    <path
       fill="#210042"
       d="m 144.41655,93.43826 v 0 c -0.002,10.74688 -8.7488,19.46213 -19.5478,19.47695 -10.79899,0.0148 -19.57007,-8.67637 -19.60171,-19.423208 l 7.79209,-0.02273 v 0 c 0.0191,6.448082 5.2987,11.662748 11.79893,11.653818 6.50023,-0.009 11.76525,-5.238054 11.76638,-11.686167 z"
       fill-rule="evenodd"
       id="path956" />
    <path
       fill="#210042"
       d="m 77.97542,105.28306 h 66.86615 v 7.77953 H 77.97542 Z"
       fill-rule="evenodd"
       id="path958" />
    <path
       fill="#210042"
       d="m 78.14259,128.64008 v 0 c -4.176201,-7.2e-4 -8.032745,-2.23608 -10.109116,-5.85952 -2.076363,-3.62344 -2.055069,-8.08095 0.05582,-11.68439 2.110893,-3.60344 5.988617,-5.80185 10.164635,-5.76267 l -0.0736,7.84342 c -1.365227,-0.0128 -2.632927,0.7059 -3.323021,1.88394 -0.690094,1.17803 -0.697052,2.63528 -0.01825,3.81985 0.67881,1.18458 1.939591,1.91536 3.304871,1.9156 z"
       fill-rule="evenodd"
       id="path960" />
    <path
       fill="#210042"
       d="m 103.80521,100.67818 h 5.95276 v 6.11023 h -5.95276 z"
       fill-rule="evenodd"
       id="path962" />
    <path
       fill="#210042"
       d="m 109.0445,93.6485 v 0 c 0,8.60068 -6.91569,15.57677 -15.455544,15.59053 l -0.006,-3.76759 v 0 c 6.461414,-0.0105 11.693934,-5.30071 11.693934,-11.82294 z"
       fill-rule="evenodd"
       id="path964" />
    <path
       fill="#210042"
       d="m 77.970695,144.25575 v 0 c -10.368881,-0.002 -19.841118,-5.87929 -24.446728,-15.16919 -4.60561,-9.28989 -3.548943,-20.38727 2.727135,-28.64104 l 6.12928,4.66064 v 0 c -4.505345,5.92505 -5.263882,13.89142 -1.957699,20.56026 3.306183,6.66884 10.105919,10.88808 17.549332,10.88935 z"
       fill-rule="evenodd"
       id="path966" />
    <path
       fill="#210042"
       d="m 77.163605,136.57753 h 21.102364 v 7.68504 H 77.163605 Z"
       fill-rule="evenodd"
       id="path968" />
    <path
       fill="#210042"
       d="m 95.86558,136.57755 v 0 c 22.05393,-0.0132 40.07671,12.03175 40.56112,27.10773 l -7.76747,0.11668 c -0.43889,-10.82869 -14.99134,-19.46558 -32.783708,-19.45714 z"
       fill-rule="evenodd"
       id="path970" />
    <path
       fill="#210042"
       d="m 77.97542,120.92432 h 66.4252 v 7.77954 h -66.4252 z"
       fill-rule="evenodd"
       id="path972" />
    <path
       fill="#210042"
       d="m 140.35576,124.74672 v 0 c 0,-2.14825 1.74152,-3.88976 3.88977,-3.88976 v 0 c 1.03163,0 2.021,0.40981 2.75047,1.13929 0.72948,0.72947 1.13929,1.71885 1.13929,2.75047 v 0 c 0,2.14826 -1.74151,3.88977 -3.88976,3.88977 v 0 c -2.14825,0 -3.88977,-1.74151 -3.88977,-3.88977 z"
       fill-rule="evenodd"
       id="path974" />
    <path
       fill="#210042"
       d="m 144.3364,93.36834 v 14.36221 h -7.96851 V 93.36834 Z"
       fill-rule="evenodd"
       id="path976" />
    <path
       fill="#210042"
       d="m 144.27141,105.30864 v 0 c 10.74469,0.002 19.45904,8.70315 19.47696,19.44784 0.0179,10.74468 -8.66736,19.47501 -19.412,19.51267 l -0.0273,-7.80026 c 6.44228,-0.0226 11.6498,-5.25711 11.63904,-11.69941 -0.0107,-6.44229 -5.23569,-11.65943 -11.67799,-11.66053 z"
       fill-rule="evenodd"
       id="path978" />
    <path
       fill="#210042"
       d="m 171.21225,101.97499 v 0 c 9.00198,10.42333 11.05908,25.10681 5.2644,37.57729 -5.79466,12.47047 -18.37626,20.43643 -32.19828,20.3861 l 0.0288,-7.8004 v 0 c 10.77402,0.0391 20.58028,-6.16169 25.09279,-15.86689 4.5125,-9.7052 2.90132,-21.1299 -4.12277,-29.23411 z"
       fill-rule="evenodd"
       id="path980" />
    <path
       fill="#210042"
       d="m 11.696308,85.76117 v 0 c 0.0085,-40.907593 36.67019,-74.06546 81.891174,-74.06476 45.220978,7.04e-4 81.881378,33.159714 81.888348,74.06731 l -7.79011,0.0011 v 0 c -0.006,-36.605705 -33.17928,-66.27764 -74.098363,-66.278275 -40.91908,-6.37e-4 -74.09312,29.670267 -74.10093,66.27596 z"
       fill-rule="evenodd"
       id="path982" />
    <path
       fill="#210042"
       d="m 163.7484,102.82244 v 0 c 0,-2.887535 1.78381,-5.228348 3.98425,-5.228348 v 0 c 1.05669,0 2.0701,0.550842 2.81729,1.531349 0.7472,0.980509 1.16697,2.310359 1.16697,3.696999 v 0 c 0,2.88753 -1.78382,5.22835 -3.98426,5.22835 v 0 c -2.20044,0 -3.98425,-2.34081 -3.98425,-5.22835 z"
       fill-rule="evenodd"
       id="path984" />
    <path
       fill="#210042"
       d="m 152.37782,163.75832 v 0 c -0.002,10.73483 -8.79315,19.44505 -19.65811,19.47687 -10.86496,0.0318 -19.70833,-8.6268 -19.77459,-19.36142 l 7.90185,-0.0476 c 0.04,6.38011 5.33923,11.52613 11.84961,11.50708 6.51039,-0.0191 11.77812,-5.19602 11.77925,-11.57625 z"
       fill-rule="evenodd"
       id="path986" />
    <path
       fill="#210042"
       d="m 128.65945,163.75267 v 0 c 0,-2.14825 1.7415,-3.88977 3.88976,-3.88977 v 0 c 1.03163,0 2.02101,0.40982 2.75047,1.1393 0.72948,0.72946 1.1393,1.71884 1.1393,2.75047 v 0 c 0,2.14825 -1.74152,3.88977 -3.88977,3.88977 v 0 c -2.14826,0 -3.88976,-1.74152 -3.88976,-3.88977 z"
       fill-rule="evenodd"
       id="path988" />
    <path
       fill="#210042"
       d="M 42.88648,152.06018 H 97.9416 v 7.77953 H 42.88648 Z"
       fill-rule="evenodd"
       id="path990" />
    <path
       fill="#210042"
       d="m 96.75336,152.06018 v 0 c 6.52674,0 12.77539,1.27563 17.32166,3.53615 4.54626,2.26051 7.00273,5.31326 6.80949,8.46243 l -7.87018,-0.11253 c 0.27471,-1.04709 -1.31542,-2.07418 -4.39429,-2.83831 -3.07885,-0.76412 -7.37299,-1.19744 -11.86668,-1.19744 z"
       fill-rule="evenodd"
       id="path992" />
    <path
       fill="#210042"
       d="m 120.78068,163.43074 v 0.62991 h -7.77953 v -0.62991 z"
       fill-rule="evenodd"
       id="path994" />
    <path
       fill="#210042"
       d="m 0,158.23355 h 116.94489 v 31.18111 H 0 Z"
       fill-rule="evenodd"
       id="path996" />
    <path
       fill="#210042"
       d="m 99.42257,175.41208 h 74.04725 v 14.3622 H 99.42257 Z"
       fill-rule="evenodd"
       id="path998" />
    <path
       fill="#210042"
       d="m 39.037457,127.95124 v 0 C 22.849736,124.3037 11.455483,109.98716 11.709626,93.614654 l 7.881915,0.118973 v 0 c -0.198126,12.660203 8.6544,23.728533 21.225386,26.538133 z"
       fill-rule="evenodd"
       id="path1000" />
    <path
       fill="#210042"
       d="m 35.57756,123.85793 v 0 c 0,-2.14825 1.741505,-3.88976 3.889763,-3.88976 v 0 c 1.031631,0 2.021007,0.40981 2.750481,1.13929 0.729469,0.72947 1.139282,1.71885 1.139282,2.75047 v 0 c 0,2.14826 -1.741505,3.88976 -3.889763,3.88976 v 0 c -2.148258,0 -3.889763,-1.7415 -3.889763,-3.88976 z"
       fill-rule="evenodd"
       id="path1002" />
    <path
       fill="#210042"
       d="m 46.755478,105.36942 v 0 c 3.136986,-0.0429 6.158752,1.18089 8.381889,3.39453 2.223137,2.21363 3.459835,5.23013 3.430397,8.36727 l -7.843422,-0.0736 c 0.0096,-1.02559 -0.394676,-2.01175 -1.121464,-2.73543 -0.726787,-0.72368 -1.714664,-1.12375 -2.740208,-1.10974 z"
       fill-rule="evenodd"
       id="path1004" />
    <path
       fill="#210042"
       d="m 144.43314,112.96106 v 0 c -4.77792,-1.61035 -7.97833,-6.11074 -7.93102,-11.15252 l 7.84342,0.0736 c -0.0155,1.64826 1.03081,3.11952 2.5928,3.64598 z"
       fill-rule="evenodd"
       id="path1006" />
    <path
       fill="#210042"
       d="m 78.13944,159.85068 v 0 C 57.136815,159.77512 39.231336,145.00543 35.70125,124.84471 l 7.662281,-1.27217 c 2.910129,16.42441 17.590572,28.45009 34.80538,28.51131 z"
       fill-rule="evenodd"
       id="path1008" />
    <path
       fill="#210042"
       d="m 19.49386,85.345604 v 8.787407 h -7.685039 v -8.787407 z"
       fill-rule="evenodd"
       id="path1010" />
    <path
       fill="#210042"
       d="m 173.01305,89.78122 v 0 c -0.009,4.934349 -1.59541,9.723755 -4.50676,13.60586 l -4.14992,-3.406389 v 0 c 2.12859,-2.924263 3.28638,-6.514153 3.29293,-10.210175 z"
       fill-rule="evenodd"
       id="path1012" />
    <path
       fill="#210042"
       d="m 175.5675,80.29047 v 14.362205 h -7.96851 V 80.29047 Z"
       fill-rule="evenodd"
       id="path1014" />
    <path
       fill="#210042"
       d="m 177.67891,92.43031 v 14.3622 h -7.96851 v -14.3622 z"
       fill-rule="evenodd"
       id="path1016" />
    <path
       fill="#210042"
       d="m 173.86029,157.73955 v 18.20471 h -29.5748 v -18.20471 z"
       fill-rule="evenodd"
       id="path1018" />
    <path
       fill="#210042"
       d="m 175.78397,142.28952 6.51968,10.23622 -24.91337,15.84253 -6.51969,-10.23622 z"
       fill-rule="evenodd"
       id="path1020" />
    <path
       fill="#210042"
       d="m 140.35562,136.54343 h 4.47244 v 7.68503 h -4.47244 z"
       fill-rule="evenodd"
       id="path1022" />
    <path
       fill="#210042"
       d="m 134.5076,136.47469 v 5.95276 l -10.42519,-5.95276 z"
       fill-rule="evenodd"
       id="path1024" />
    <path
       fill="#210042"
       d="m 143.35382,144.20596 v 0 c -2.91862,0.25781 -6.2126,-0.31107 -8.33917,-1.44022 -2.12659,-1.12913 -2.66469,-2.59497 -1.36231,-3.71093 1.3024,-1.11599 4.18741,-1.66115 7.30382,-1.38016 z"
       fill-rule="evenodd"
       id="path1026" />
    <path
       fill="#210042"
       d="m 141.05843,136.53937 v 4.59842 h -7.68504 v -4.59842 z"
       fill-rule="evenodd"
       id="path1028" />
    <path
       fill="#210042"
       d="M -7.3490814e-6,128.54115 H 40.976373 v 29.66928 H -7.3490814e-6 Z"
       fill-rule="evenodd"
       id="path1030" />
    <path
       fill="#210042"
       d="M -7.3490814e-6,0 H 17.385819 V 138.70866 H -7.3490814e-6 Z"
       fill-rule="evenodd"
       id="path1032" />
    <path
       fill="#210042"
       d="M 21.127584,107.71511 58.387426,149.98283 39.867742,166.32928 2.6079,124.06157 Z"
       fill-rule="evenodd"
       id="path1034" />
    <path
       fill="#210042"
       d="M 174.30714,0 V 17.385826 H 0.00792 V 0 Z"
       fill-rule="evenodd"
       id="path1036" />
    <path
       fill="#210042"
       d="m 14.45751,16.894066 1.438792,-1.29885 h 50.37223 l -51.81102,46.771656 z"
       fill-rule="evenodd"
       id="path1038" />
    <path
       fill="#210042"
       d="m 172.97134,16.894817 1.17377,1.452787 v 50.862175 l -42.26772,-52.31496 z"
       fill-rule="evenodd"
       id="path1040" />
    <path
       fill="#210042"
       d="m 125.90459,7.1143913 18.4252,10.3937017 -5.73228,10.204723 -18.4252,-10.3937 z"
       fill-rule="evenodd"
       id="path1042" />
    <path
       fill="#210042"
       d="M 0.00851969,143.55478 H 46.780176 v 29.6693 H 0.00851969 Z"
       fill-rule="evenodd"
       id="path1044" />
    <path
       fill="#210042"
       d="m 165.0975,8.598473 26.89764,26.897636 -18.4252,18.425198 -26.89763,-26.897636 z"
       fill-rule="evenodd"
       id="path1046" />
  </g>
</svg>
